<svg xmlns="http://www.w3.org/2000/svg" viewBox="0 0 1420 340" fill="none" shape-rendering="geometricPrecision" text-rendering="geometricPrecision">
  <title>FOCULOOM horizontal logo on dark surfaces</title>
  <desc>FOCULOOM horizontal logo optimized for dark surfaces with off-white primary forms and the teal focus accent preserved.</desc>
  <defs>
    <mask id="horizontal-symbol-mask" maskUnits="userSpaceOnUse" x="0" y="0" width="320" height="300">
      <rect width="320" height="300" fill="black"/>
      <g fill="white"><circle cx="98" cy="128" r="68"/>
      <circle cx="164" cy="92" r="82"/>
      <circle cx="232" cy="124" r="68"/>
      <rect x="72" y="138" width="204" height="114" rx="57"/></g>
      <rect x="222" y="34" width="28" height="90" rx="14" fill="black"/>
    </mask>
    <clipPath id="horizontal-notch-clip" clipPathUnits="userSpaceOnUse">
      <rect x="222" y="34" width="28" height="90" rx="14"/>
    </clipPath>
  </defs>
  <g transform="translate(0 18)">
  <g>
    <g mask="url(#horizontal-symbol-mask)" fill="#F5F7FB"><circle cx="98" cy="128" r="68"/>
      <circle cx="164" cy="92" r="82"/>
      <circle cx="232" cy="124" r="68"/>
      <rect x="72" y="138" width="204" height="114" rx="57"/></g>
    <rect x="214" y="44" width="42" height="88" rx="21" fill="#4CD2CF" clip-path="url(#horizontal-notch-clip)"/>
  </g>
  </g>
  <g transform="translate(386 124)">
  <g>
      <path d="M 20.956 20.460 L 20.956 38.564 L 54.932 38.564 L 54.932 56.048 L 20.956 56.048 L 20.956 90.148 L 0 90.148 L 0 2.356 L 57.784 2.356 L 57.784 20.460 Z" fill="#F5F7FB"/>
      <path d="M 162.936 45.880 Q 162.936 56.296 159.340 64.914 Q 155.744 73.532 149.358 79.670 Q 142.972 85.808 134.168 89.156 Q 125.364 92.504 115.072 92.504 Q 104.780 92.504 96.038 89.156 Q 87.296 85.808 80.910 79.670 Q 74.524 73.532 70.928 64.914 Q 67.332 56.296 67.332 45.880 Q 67.332 35.340 70.928 26.846 Q 74.524 18.352 80.910 12.400 Q 87.296 6.448 96.038 3.224 Q 104.780 0 115.072 0 Q 125.364 0 134.168 3.224 Q 142.972 6.448 149.358 12.400 Q 155.744 18.352 159.340 26.846 Q 162.936 35.340 162.936 45.880 Z M 140.244 45.880 Q 140.244 40.176 138.384 35.216 Q 136.524 30.256 133.238 26.722 Q 129.952 23.188 125.302 21.142 Q 120.652 19.096 115.072 19.096 Q 109.492 19.096 104.904 21.142 Q 100.316 23.188 96.968 26.722 Q 93.620 30.256 91.822 35.216 Q 90.024 40.176 90.024 45.880 Q 90.024 51.832 91.884 56.854 Q 93.744 61.876 97.030 65.472 Q 100.316 69.068 104.904 71.114 Q 109.492 73.160 115.072 73.160 Q 120.652 73.160 125.240 71.114 Q 129.828 69.068 133.176 65.472 Q 136.524 61.876 138.384 56.854 Q 140.244 51.832 140.244 45.880 Z" fill="#F5F7FB"/>
      <path d="M 254.200 77.996 Q 248.372 84.692 239.816 88.598 Q 231.260 92.504 220.100 92.504 Q 209.932 92.504 201.314 89.156 Q 192.696 85.808 186.372 79.670 Q 180.048 73.532 176.452 64.976 Q 172.856 56.420 172.856 46.128 Q 172.856 35.588 176.514 27.032 Q 180.172 18.476 186.620 12.462 Q 193.068 6.448 201.748 3.224 Q 210.428 0 220.472 0 Q 229.772 0 238.762 3.286 Q 247.752 6.572 253.332 12.896 L 238.948 27.280 Q 235.972 23.188 231.136 21.204 Q 226.300 19.220 221.216 19.220 Q 215.636 19.220 210.986 21.266 Q 206.336 23.312 202.988 26.908 Q 199.640 30.504 197.780 35.402 Q 195.920 40.300 195.920 46.128 Q 195.920 52.080 197.780 57.040 Q 199.640 62 202.926 65.534 Q 206.212 69.068 210.800 71.052 Q 215.388 73.036 220.844 73.036 Q 227.168 73.036 231.880 70.556 Q 236.592 68.076 239.444 64.108 Z" fill="#F5F7FB"/>
      <path d="M 337.652 57.040 Q 337.652 64.976 334.986 71.486 Q 332.320 77.996 327.360 82.646 Q 322.400 87.296 315.394 89.900 Q 308.388 92.504 299.832 92.504 Q 291.152 92.504 284.208 89.900 Q 277.264 87.296 272.428 82.646 Q 267.592 77.996 264.988 71.486 Q 262.384 64.976 262.384 57.040 L 262.384 2.356 L 283.464 2.356 L 283.464 55.304 Q 283.464 58.900 284.394 62.124 Q 285.324 65.348 287.246 67.890 Q 289.168 70.432 292.330 71.920 Q 295.492 73.408 299.956 73.408 Q 304.420 73.408 307.582 71.920 Q 310.744 70.432 312.728 67.890 Q 314.712 65.348 315.580 62.124 Q 316.448 58.900 316.448 55.304 L 316.448 2.356 L 337.652 2.356 Z" fill="#F5F7FB"/>
      <path d="M 354.764 90.148 L 354.764 2.356 L 376.092 2.356 L 376.092 71.672 L 410.068 71.672 L 410.068 90.148 Z" fill="#4CD2CF"/>
      <path d="M 511.500 45.880 Q 511.500 56.296 507.904 64.914 Q 504.308 73.532 497.922 79.670 Q 491.536 85.808 482.732 89.156 Q 473.928 92.504 463.636 92.504 Q 453.344 92.504 444.602 89.156 Q 435.860 85.808 429.474 79.670 Q 423.088 73.532 419.492 64.914 Q 415.896 56.296 415.896 45.880 Q 415.896 35.340 419.492 26.846 Q 423.088 18.352 429.474 12.400 Q 435.860 6.448 444.602 3.224 Q 453.344 0 463.636 0 Q 473.928 0 482.732 3.224 Q 491.536 6.448 497.922 12.400 Q 504.308 18.352 507.904 26.846 Q 511.500 35.340 511.500 45.880 Z M 488.808 45.880 Q 488.808 40.176 486.948 35.216 Q 485.088 30.256 481.802 26.722 Q 478.516 23.188 473.866 21.142 Q 469.216 19.096 463.636 19.096 Q 458.056 19.096 453.468 21.142 Q 448.880 23.188 445.532 26.722 Q 442.184 30.256 440.386 35.216 Q 438.588 40.176 438.588 45.880 Q 438.588 51.832 440.448 56.854 Q 442.308 61.876 445.594 65.472 Q 448.880 69.068 453.468 71.114 Q 458.056 73.160 463.636 73.160 Q 469.216 73.160 473.804 71.114 Q 478.392 69.068 481.740 65.472 Q 485.088 61.876 486.948 56.854 Q 488.808 51.832 488.808 45.880 Z" fill="#4CD2CF"/>
      <path d="M 617.024 45.880 Q 617.024 56.296 613.428 64.914 Q 609.832 73.532 603.446 79.670 Q 597.060 85.808 588.256 89.156 Q 579.452 92.504 569.160 92.504 Q 558.868 92.504 550.126 89.156 Q 541.384 85.808 534.998 79.670 Q 528.612 73.532 525.016 64.914 Q 521.420 56.296 521.420 45.880 Q 521.420 35.340 525.016 26.846 Q 528.612 18.352 534.998 12.400 Q 541.384 6.448 550.126 3.224 Q 558.868 0 569.160 0 Q 579.452 0 588.256 3.224 Q 597.060 6.448 603.446 12.400 Q 609.832 18.352 613.428 26.846 Q 617.024 35.340 617.024 45.880 Z M 594.332 45.880 Q 594.332 40.176 592.472 35.216 Q 590.612 30.256 587.326 26.722 Q 584.040 23.188 579.390 21.142 Q 574.740 19.096 569.160 19.096 Q 563.580 19.096 558.992 21.142 Q 554.404 23.188 551.056 26.722 Q 547.708 30.256 545.910 35.216 Q 544.112 40.176 544.112 45.880 Q 544.112 51.832 545.972 56.854 Q 547.832 61.876 551.118 65.472 Q 554.404 69.068 558.992 71.114 Q 563.580 73.160 569.160 73.160 Q 574.740 73.160 579.328 71.114 Q 583.916 69.068 587.264 65.472 Q 590.612 61.876 592.472 56.854 Q 594.332 51.832 594.332 45.880 Z" fill="#4CD2CF"/>
      <path d="M 710.644 90.148 L 711.140 28.024 L 710.768 28.024 L 687.952 90.148 L 673.072 90.148 L 650.876 28.024 L 650.504 28.024 L 651 90.148 L 631.036 90.148 L 631.036 2.356 L 661.168 2.356 L 681.132 58.652 L 681.628 58.652 L 700.724 2.356 L 731.352 2.356 L 731.352 90.148 Z" fill="#4CD2CF"/>
    </g>
  </g>
</svg>
